<?xml version="1.0" encoding="UTF-8"?>
<svg version="1.1" xmlns="http://www.w3.org/2000/svg" width="40" height="20">
<path d="M0 0 C13.2 0 26.4 0 40 0 C40 6.6 40 13.2 40 20 C26.8 20 13.6 20 0 20 C0 13.4 0 6.8 0 0 Z " fill="#FBFBFB" transform="translate(0,0)"/>
<path d="M0 0 C2.1640625 -0.29296875 2.1640625 -0.29296875 4.625 -0.1875 C5.44226562 -0.16042969 6.25953125 -0.13335938 7.1015625 -0.10546875 C8.04128906 -0.05326172 8.04128906 -0.05326172 9 0 C8.01 0.495 8.01 0.495 7 1 C7 1.66 7 2.32 7 3 C7.66 3 8.32 3 9 3 C8.67 4.32 8.34 5.64 8 7 C3.45194365 7.17835515 0.1205746 6.99785435 -4 5 C-3.67 4.01 -3.34 3.02 -3 2 C-2.67 2.33 -2.34 2.66 -2 3 C-1.34 2.01 -0.68 1.02 0 0 Z " fill="#6A8BBB" transform="translate(14,7)"/>
<path d="M0 0 C0.99 0.33 1.98 0.66 3 1 C2.34 1 1.68 1 1 1 C1 1.66 1 2.32 1 3 C1.66 3 2.32 3 3 3 C2.67 4.32 2.34 5.64 2 7 C0.35 6.67 -1.3 6.34 -3 6 C-2.625 3.5625 -2.625 3.5625 -2 1 C-1.34 0.67 -0.68 0.34 0 0 Z " fill="#7492BF" transform="translate(20,7)"/>
<path d="M0 0 C0.99 0 1.98 0 3 0 C3.33 1.98 3.66 3.96 4 6 C2.35 6 0.7 6 -1 6 C-0.67 4.02 -0.34 2.04 0 0 Z " fill="#416CA9" transform="translate(25,7)"/>
<path d="M0 0 C1.125 3.75 1.125 3.75 0 6 C-1.32 5.67 -2.64 5.34 -4 5 C-3.67 4.01 -3.34 3.02 -3 2 C-2.67 2.33 -2.34 2.66 -2 3 C-1.34 2.01 -0.68 1.02 0 0 Z " fill="#3D6AA7" transform="translate(14,7)"/>
</svg>
