<?xml version="1.0" encoding="UTF-8"?>
<svg version="1.1" xmlns="http://www.w3.org/2000/svg" width="40" height="20">
<path d="M0 0 C13.2 0 26.4 0 40 0 C40 6.6 40 13.2 40 20 C26.8 20 13.6 20 0 20 C0 13.4 0 6.8 0 0 Z " fill="#FCFCFD" transform="translate(0,0)"/>
<path d="M0 0 C3.96 0 7.92 0 12 0 C12.33 1.65 12.66 3.3 13 5 C9.92677456 5.91058531 7.19902639 6.08886184 4 6 C4 6.66 4 7.32 4 8 C3.34 8 2.68 8 2 8 C2 7.34 2 6.68 2 6 C1.34 6 0.68 6 0 6 C0 4.02 0 2.04 0 0 Z " fill="#766EF8" transform="translate(19,7)"/>
<path d="M0 0 C-0.33 1.98 -0.66 3.96 -1 6 C-4.3 6 -7.6 6 -11 6 C-11 4 -11 2 -11 0 C-7.18243176 -1.37432457 -3.92744671 -0.67975039 0 0 Z " fill="#8983F7" transform="translate(18,7)"/>
<path d="M0 0 C2.31 0 4.62 0 7 0 C6.625 2.4375 6.625 2.4375 6 5 C5.01 5.495 5.01 5.495 4 6 C4 6.66 4 7.32 4 8 C3.34 8 2.68 8 2 8 C2 7.34 2 6.68 2 6 C1.34 6 0.68 6 0 6 C0 4.02 0 2.04 0 0 Z " fill="#908AF6" transform="translate(19,7)"/>
</svg>
